<?xml version="1.0" standalone="no"?>
<!DOCTYPE svg PUBLIC "-//W3C//DTD SVG 20010904//EN"
 "http://www.w3.org/TR/2001/REC-SVG-20010904/DTD/svg10.dtd">
<svg version="1.0" xmlns="http://www.w3.org/2000/svg"
 width="256.000000pt" height="256.000000pt" viewBox="0 0 256.000000 256.000000"
 preserveAspectRatio="xMidYMid meet">
<metadata>
Created by potrace 1.11, written by Peter Selinger 2001-2013
</metadata>
<g transform="translate(0.000000,256.000000) scale(0.100000,-0.100000)"
fill="#000000" stroke="none">
<path d="M630 2089 c0 -113 8 -139 43 -139 10 0 13 -12 12 -42 -2 -52 12 -78
42 -78 16 0 21 -5 18 -20 -2 -11 1 -20 6 -20 6 0 7 -5 4 -11 -5 -7 6 -9 31 -7
35 3 39 6 38 31 -1 24 2 27 28 27 26 0 29 3 28 28 -5 76 -1 92 25 92 28 0 27
-6 26 143 0 48 -3 92 -6 97 -3 6 -19 10 -36 10 l-29 0 0 -115 0 -115 -29 0
-30 0 2 -63 c2 -56 0 -63 -15 -59 -14 3 -18 15 -18 56 0 47 -2 53 -28 62 l-27
11 1 102 c1 111 -4 121 -60 121 l-26 0 0 -111z"/>
<path d="M1677 2193 c-4 -3 -7 -21 -7 -40 0 -31 2 -33 33 -33 32 0 33 2 35 40
3 38 1 40 -26 40 -16 0 -32 -3 -35 -7z"/>
<path d="M1795 2194 c-8 -3 -11 -176 -6 -346 1 -12 9 -18 26 -18 21 0 25 -5
25 -30 0 -28 3 -30 35 -30 28 0 35 4 36 20 1 11 2 28 3 38 1 12 -8 18 -26 20
l-28 3 0 175 0 174 -27 -1 c-16 0 -32 -2 -38 -5z"/>
<path d="M1975 2190 c-3 -6 -7 -88 -7 -183 l-1 -172 27 -3 c21 -3 26 -8 26
-33 0 -27 3 -29 35 -29 35 0 38 4 38 45 0 31 -4 35 -28 35 l-25 0 0 175 0 175
-29 0 c-17 0 -33 -5 -36 -10z"/>
<path d="M1039 2075 c-1 -3 -1 -14 -1 -25 0 -51 -2 -50 81 -50 60 0 80 -4 84
-15 5 -12 -9 -15 -81 -17 l-87 -3 2 -27 c2 -25 -1 -28 -27 -28 -25 0 -30 -4
-30 -24 0 -40 11 -56 36 -56 13 0 23 -3 23 -7 -1 -5 -1 -18 0 -30 1 -22 4 -23
116 -23 132 0 117 -16 117 125 -1 133 1 125 -30 125 -24 0 -28 4 -27 28 l0 27
-87 3 c-49 1 -88 0 -89 -3z m164 -205 c-5 -18 -14 -20 -73 -20 -49 0 -69 4
-73 14 -9 22 2 26 79 26 67 0 72 -1 67 -20z"/>
<path d="M1327 2073 c-2 -5 -3 -73 -3 -153 l1 -145 36 -3 36 -3 -1 113 -1 113
73 3 c53 2 72 0 73 -10 1 -7 1 -59 1 -115 l0 -103 33 0 c21 0 35 6 39 16 3 9
6 65 6 125 l0 109 -30 0 c-27 0 -30 3 -30 30 l0 30 -114 0 c-63 0 -117 -3
-119 -7z"/>
<path d="M1674 2069 c-4 -6 -6 -55 -6 -108 1 -53 1 -118 2 -144 l0 -48 33 3
32 3 3 153 3 152 -30 0 c-16 0 -33 -5 -37 -11z"/>
<path d="M2203 2073 c-7 -2 -13 -20 -13 -39 l0 -34 80 0 c64 0 80 -3 80 -15 0
-12 -14 -15 -64 -15 -80 0 -96 -6 -96 -35 0 -17 -7 -25 -22 -27 -14 -2 -25
-12 -28 -28 -9 -35 -2 -50 26 -50 20 0 24 -5 24 -30 l0 -30 111 0 c82 0 114 4
125 14 10 11 14 43 14 126 l0 112 -33 -4 c-31 -3 -32 -2 -29 29 l4 33 -83 -1
c-46 0 -90 -3 -96 -6z m150 -203 c-5 -18 -14 -20 -74 -20 -62 0 -69 2 -69 20
0 18 7 20 74 20 69 0 74 -1 69 -20z"/>
<path d="M460 1470 c0 -23 4 -30 20 -30 11 0 20 -4 20 -9 0 -6 17 -11 38 -13
l37 -3 1 -150 c2 -184 1 -175 20 -175 8 0 12 -5 9 -11 -5 -7 6 -9 31 -7 l39 3
0 170 0 170 52 3 c53 3 64 14 55 54 -6 24 -32 28 -184 28 l-138 0 0 -30z"/>
<path d="M1859 1488 c-1 -7 -2 -104 -3 -215 l-1 -203 36 0 36 0 -1 58 c-1 51
1 57 20 60 18 3 21 -2 20 -25 -1 -23 3 -29 27 -31 23 -3 27 -8 27 -33 0 -27 3
-29 35 -29 34 0 35 1 35 40 0 36 -2 40 -25 40 -14 0 -26 5 -26 10 -1 6 -3 15
-4 20 -1 6 -3 15 -4 20 0 6 -12 10 -26 10 -37 0 -35 38 3 42 21 2 27 8 26 26
-1 18 4 22 27 22 27 0 29 3 29 41 0 39 -1 40 -32 37 -28 -2 -34 -8 -36 -30 -3
-22 -9 -28 -28 -28 -23 0 -29 -9 -25 -38 2 -9 -6 -12 -21 -10 -22 3 -22 6 -23
113 l0 110 -32 3 c-22 2 -33 -1 -34 -10z"/>
<path d="M810 1265 c0 -96 3 -115 15 -115 8 0 15 -4 15 -10 0 -5 7 -10 16 -10
8 0 13 -4 10 -9 -3 -4 3 -18 13 -30 17 -19 29 -21 130 -21 61 0 111 3 112 8 0
4 1 67 2 141 2 148 -2 161 -54 161 l-29 0 0 -115 c0 -92 -3 -115 -14 -115 -10
0 -13 13 -12 51 2 46 0 52 -22 60 -14 6 -35 9 -46 7 -19 -3 -21 -10 -20 -61 1
-37 -3 -56 -10 -54 -7 2 -10 42 -10 109 l1 106 -30 6 c-69 14 -67 18 -67 -109z"/>
<path d="M1214 1358 c1 -13 5 -28 8 -33 4 -7 -6 -9 -28 -7 l-34 4 0 -82 c0
-84 11 -110 45 -110 9 0 15 -6 14 -12 -1 -7 1 -21 5 -30 7 -16 23 -18 121 -18
120 0 127 3 115 50 -6 24 -9 25 -105 28 -93 3 -123 12 -109 34 3 4 52 8 110 8
92 0 104 2 105 18 4 65 4 79 -4 95 -4 9 -18 17 -31 17 -20 0 -23 4 -19 21 9
31 -12 39 -108 39 -83 0 -86 -1 -85 -22z m176 -73 c0 -12 -14 -15 -69 -15 -65
0 -90 8 -74 24 3 3 37 6 75 6 54 0 68 -3 68 -15z"/>
<path d="M1568 1373 c-4 -7 -3 -30 1 -63 0 -6 35 -10 81 -10 64 0 80 -3 80
-15 0 -12 -16 -15 -80 -15 -82 0 -83 -1 -83 -42 0 -13 -8 -18 -28 -18 -24 0
-29 -4 -29 -24 0 -40 11 -56 37 -56 13 0 23 -5 22 -12 -6 -48 -5 -48 116 -48
63 0 115 3 116 8 1 10 1 169 0 210 -1 27 -5 32 -25 32 -19 0 -25 6 -28 28 -3
27 -3 27 -90 30 -47 1 -88 -1 -90 -5z m162 -203 c0 -18 -7 -20 -69 -20 -50 0
-70 4 -74 14 -9 22 2 26 75 26 61 0 68 -2 68 -20z"/>
<path d="M2203 1373 c-7 -2 -13 -16 -13 -30 0 -18 -4 -24 -14 -20 -18 7 -37
-15 -40 -48 -3 -22 1 -25 25 -25 26 0 29 -4 29 -30 l0 -30 80 0 c73 0 80 -2
80 -20 0 -19 -7 -20 -99 -20 -104 0 -123 -8 -116 -45 2 -11 4 -23 4 -27 1 -5
53 -8 116 -8 l116 0 6 30 c3 17 12 30 20 30 23 0 43 26 43 55 0 25 -3 27 -33
23 -31 -3 -32 -2 -29 29 l4 33 -86 0 c-70 0 -86 3 -86 15 0 12 18 15 101 15
110 0 129 8 129 54 l0 26 -112 -1 c-62 0 -119 -3 -125 -6z"/>
<path d="M110 595 l0 -205 25 0 c14 0 25 -4 25 -10 0 -6 45 -10 115 -10 l115
0 0 30 c0 25 4 30 25 30 17 0 25 6 26 18 1 19 1 143 0 154 -1 4 -11 8 -23 10
-15 2 -24 11 -26 26 -3 18 1 22 21 22 18 0 26 6 29 24 6 30 -1 43 -27 47 -13
3 -21 13 -23 30 -4 33 -32 39 -179 39 l-103 0 0 -205z m230 106 c0 -11 8 -21
18 -24 9 -2 -12 -2 -48 0 -82 6 -91 9 -84 28 5 11 21 15 60 15 47 0 54 -3 54
-19z m0 -175 c0 -51 4 -76 13 -79 6 -2 3 -3 -8 -1 -11 2 -42 4 -70 4 l-50 0 1
72 c1 40 2 74 3 76 1 1 26 2 56 2 l55 0 0 -74z"/>
<path d="M1040 710 c0 -76 -3 -90 -16 -90 -9 0 -14 6 -11 13 11 30 -11 42 -79
42 -56 0 -67 -3 -70 -18 -1 -9 4 -24 12 -31 11 -12 8 -13 -26 -9 l-40 6 0 -87
c0 -70 3 -86 15 -86 8 0 15 -4 15 -10 0 -5 7 -10 16 -10 11 0 14 -6 9 -20 -5
-14 -2 -20 9 -20 9 0 16 -4 16 -10 0 -12 230 -14 231 -2 0 4 1 94 2 201 2 212
0 221 -54 221 l-29 0 0 -90z m-58 -128 c-1 -7 4 -20 12 -28 8 -7 22 -14 30
-14 12 0 16 -11 16 -45 l0 -46 -67 3 -68 3 0 65 c-1 36 1 69 3 73 7 14 77 3
74 -11z"/>
<path d="M2204 788 c-4 -6 -8 -103 -8 -215 l-1 -203 38 0 37 0 0 60 c0 53 2
60 20 60 15 0 18 -6 15 -30 -3 -27 -1 -30 26 -30 26 0 29 -3 29 -30 0 -27 3
-30 34 -30 36 0 46 12 46 57 0 23 -3 25 -33 21 -34 -4 -34 -3 -27 29 8 32 7
33 -24 33 -25 0 -32 5 -33 20 -1 15 4 20 21 20 15 0 27 9 34 25 7 15 20 25 32
25 13 0 22 9 26 28 3 15 7 33 10 40 2 8 -7 12 -25 12 -44 0 -61 -10 -61 -34 0
-15 -9 -25 -30 -33 -17 -6 -29 -17 -28 -24 2 -7 -5 -15 -14 -17 -16 -3 -18 7
-18 112 l0 116 -29 0 c-17 0 -33 -5 -37 -12z"/>
<path d="M514 653 c1 -23 -4 -29 -26 -31 -23 -3 -27 -8 -30 -40 -6 -70 3 -132
19 -132 20 0 46 -27 38 -41 -4 -6 2 -13 14 -16 12 -3 21 -9 21 -14 0 -6 51 -8
117 -7 l116 3 2 29 c1 38 -23 46 -135 46 -83 0 -88 1 -83 20 5 18 14 20 109
20 85 0 104 3 105 15 0 8 1 31 1 50 0 53 0 52 -27 59 -18 5 -25 13 -25 30 0
29 -28 36 -140 36 l-77 0 1 -27z m33 -39 c-3 -3 -12 -4 -19 -1 -8 3 -5 6 6 6
11 1 17 -2 13 -5z m143 -29 c0 -12 -13 -15 -59 -15 -56 0 -79 9 -64 24 3 3 33
6 65 6 45 0 58 -3 58 -15z"/>
<path d="M1159 643 c-3 -172 2 -257 19 -269 9 -7 26 -11 37 -9 11 2 23 4 26 4
3 1 5 34 5 74 -2 89 0 97 30 97 20 0 24 5 24 30 0 29 2 30 45 30 43 0 45 -1
45 -30 0 -27 3 -30 34 -30 24 0 35 5 38 18 8 29 -9 62 -32 62 -15 0 -20 7 -20
25 0 29 -24 38 -90 33 -40 -3 -44 -5 -45 -30 -1 -16 3 -28 8 -28 6 0 8 -3 5
-6 -13 -12 -46 16 -41 34 5 20 -19 32 -64 32 -20 0 -23 -5 -24 -37z"/>
<path d="M1569 668 c-1 -7 -2 -20 -3 -28 0 -8 -13 -16 -28 -18 -28 -3 -28 -4
-28 -82 0 -95 5 -110 36 -110 13 0 23 -3 23 -7 -1 -5 -1 -18 0 -30 1 -22 5
-23 91 -23 l90 0 0 30 c0 25 4 30 25 30 14 0 25 6 26 13 1 15 1 147 0 165 -1
6 -12 12 -25 12 -19 0 -25 6 -28 28 -3 27 -3 27 -90 30 -66 2 -88 0 -89 -10z
m161 -143 l0 -75 -69 0 c-46 0 -70 4 -73 13 -4 10 -3 126 1 135 1 1 33 2 71 2
l70 0 0 -75z"/>
<path d="M1917 673 c-4 -3 -7 -17 -7 -30 0 -18 -5 -23 -25 -23 -28 0 -26 5
-29 -112 l-1 -78 28 0 c23 0 27 -4 27 -30 l0 -30 90 0 90 0 0 30 c0 25 4 30
24 30 25 0 36 16 36 56 0 19 -5 24 -24 24 -40 0 -56 -11 -56 -36 0 -23 -3 -24
-72 -24 l-73 0 2 67 c0 38 2 71 2 76 1 4 33 7 71 7 l70 0 0 -30 c0 -27 3 -30
34 -30 36 0 46 12 46 56 0 20 -5 24 -30 24 -27 0 -30 3 -30 30 l0 30 -83 0
c-46 0 -87 -3 -90 -7z"/>
</g>
</svg>
